<svg width="75" height="94" viewBox="0 0 75 94" fill="none" xmlns="http://www.w3.org/2000/svg">
<path d="M71.4469 16.2915C71.2909 15.2445 70.4044 14.46 69.3469 14.4465C64.9894 14.3895 58.6474 13.728 51.6364 10.8975C46.1974 8.7015 42.0349 5.8785 39.1084 3.501C38.6974 3.1665 38.1964 3 37.6954 3C37.1944 3 36.6919 3.1665 36.2824 3.501C33.3544 5.8785 29.1919 8.7015 23.7544 10.8975C16.7434 13.728 10.3999 14.3895 6.04386 14.4465C4.98486 14.46 4.09836 15.2445 3.94386 16.2915C2.58636 25.482 0.00185776 53.8845 18.7714 76.404C24.3049 83.043 30.4384 87.663 35.8354 90.8715C36.4084 91.212 37.0519 91.383 37.6939 91.383C38.3374 91.383 38.9794 91.212 39.5524 90.8715C44.9509 87.6645 51.0829 83.0445 56.6164 76.404C75.3874 53.8845 72.8044 25.482 71.4469 16.2915ZM53.1604 73.5225C48.8524 78.693 43.6504 83.1375 37.6939 86.739C31.7359 83.1345 26.5339 78.69 22.2274 73.5225C6.20136 54.2955 6.75486 30.153 8.13486 18.882C14.0989 18.5805 19.9114 17.301 25.4389 15.0705C29.8114 13.305 33.9259 10.968 37.6954 8.112C41.4634 10.968 45.5779 13.305 49.9519 15.0705C55.4794 17.301 61.2904 18.5805 67.2559 18.882C68.6344 30.153 69.1879 54.2955 53.1604 73.5225ZM41.6217 21L26 46.6479H34.4042L32.6449 66L48.2667 40.3526H39.862L41.6217 21Z" fill="#1F3C70" stroke="#1F3C70" stroke-width="5" stroke-linecap="round"/>
</svg>
